<mxfile host="Electron" agent="Mozilla/5.0 (Windows NT 10.0; Win64; x64) AppleWebKit/537.36 (KHTML, like Gecko) draw.io/24.7.8 Chrome/128.0.6613.36 Electron/32.0.1 Safari/537.36" version="24.7.8" pages="2">
  <diagram id="C5RBs43oDa-KdzZeNtuy" name="Diagramme UML">
    <mxGraphModel dx="2963" dy="2408" grid="1" gridSize="10" guides="1" tooltips="1" connect="1" arrows="1" fold="1" page="1" pageScale="1" pageWidth="827" pageHeight="1169" background="#ffffff" math="0" shadow="0">
      <root>
        <mxCell id="WIyWlLk6GJQsqaUBKTNV-0" />
        <mxCell id="WIyWlLk6GJQsqaUBKTNV-1" parent="WIyWlLk6GJQsqaUBKTNV-0" />
        <mxCell id="1ueZpi8muVTtU1drRdIC-45" style="edgeStyle=orthogonalEdgeStyle;rounded=0;orthogonalLoop=1;jettySize=auto;html=1;entryX=0.5;entryY=0;entryDx=0;entryDy=0;endArrow=open;endFill=0;startArrow=none;startFill=0;endSize=14;" edge="1" parent="WIyWlLk6GJQsqaUBKTNV-1" source="1ueZpi8muVTtU1drRdIC-0" target="1ueZpi8muVTtU1drRdIC-20">
          <mxGeometry relative="1" as="geometry" />
        </mxCell>
        <mxCell id="1ueZpi8muVTtU1drRdIC-69" style="edgeStyle=orthogonalEdgeStyle;rounded=0;orthogonalLoop=1;jettySize=auto;html=1;entryX=0.5;entryY=0;entryDx=0;entryDy=0;strokeColor=default;align=center;verticalAlign=middle;fontFamily=Helvetica;fontSize=11;fontColor=default;labelBackgroundColor=default;startArrow=none;startFill=0;endArrow=open;endFill=0;endSize=14;exitX=0;exitY=0.5;exitDx=0;exitDy=0;" edge="1" parent="WIyWlLk6GJQsqaUBKTNV-1" source="1ueZpi8muVTtU1drRdIC-2" target="1ueZpi8muVTtU1drRdIC-59">
          <mxGeometry relative="1" as="geometry" />
        </mxCell>
        <mxCell id="1ueZpi8muVTtU1drRdIC-119" style="edgeStyle=orthogonalEdgeStyle;rounded=0;orthogonalLoop=1;jettySize=auto;html=1;entryX=0.5;entryY=1;entryDx=0;entryDy=0;strokeColor=default;align=center;verticalAlign=middle;fontFamily=Helvetica;fontSize=11;fontColor=default;labelBackgroundColor=default;startArrow=none;startFill=0;endArrow=open;endFill=0;endSize=14;" edge="1" parent="WIyWlLk6GJQsqaUBKTNV-1" source="1ueZpi8muVTtU1drRdIC-0" target="1ueZpi8muVTtU1drRdIC-106">
          <mxGeometry relative="1" as="geometry" />
        </mxCell>
        <mxCell id="1ueZpi8muVTtU1drRdIC-0" value="Users" style="swimlane;fontStyle=2;align=center;verticalAlign=top;childLayout=stackLayout;horizontal=1;startSize=26;horizontalStack=0;resizeParent=1;resizeLast=0;collapsible=1;marginBottom=0;rounded=0;shadow=0;strokeWidth=1;fillColor=#dae8fc;strokeColor=#6c8ebf;" vertex="1" parent="WIyWlLk6GJQsqaUBKTNV-1">
          <mxGeometry x="320" y="-80" width="160" height="260" as="geometry">
            <mxRectangle x="230" y="140" width="160" height="26" as="alternateBounds" />
          </mxGeometry>
        </mxCell>
        <mxCell id="1ueZpi8muVTtU1drRdIC-8" value="id" style="text;align=left;verticalAlign=top;spacingLeft=4;spacingRight=4;overflow=hidden;rotatable=0;points=[[0,0.5],[1,0.5]];portConstraint=eastwest;strokeWidth=1;fillColor=none;strokeColor=none;" vertex="1" parent="1ueZpi8muVTtU1drRdIC-0">
          <mxGeometry y="26" width="160" height="26" as="geometry" />
        </mxCell>
        <mxCell id="1ueZpi8muVTtU1drRdIC-7" value="lastname" style="text;align=left;verticalAlign=top;spacingLeft=4;spacingRight=4;overflow=hidden;rotatable=0;points=[[0,0.5],[1,0.5]];portConstraint=eastwest;strokeWidth=1;fillColor=none;strokeColor=none;" vertex="1" parent="1ueZpi8muVTtU1drRdIC-0">
          <mxGeometry y="52" width="160" height="26" as="geometry" />
        </mxCell>
        <mxCell id="1ueZpi8muVTtU1drRdIC-1" value="firstname" style="text;align=left;verticalAlign=top;spacingLeft=4;spacingRight=4;overflow=hidden;rotatable=0;points=[[0,0.5],[1,0.5]];portConstraint=eastwest;strokeWidth=1;fillColor=none;strokeColor=none;" vertex="1" parent="1ueZpi8muVTtU1drRdIC-0">
          <mxGeometry y="78" width="160" height="26" as="geometry" />
        </mxCell>
        <mxCell id="1ueZpi8muVTtU1drRdIC-2" value="email" style="text;align=left;verticalAlign=top;spacingLeft=4;spacingRight=4;overflow=hidden;rotatable=0;points=[[0,0.5],[1,0.5]];portConstraint=eastwest;rounded=0;shadow=0;html=0;strokeWidth=1;fillColor=none;strokeColor=none;" vertex="1" parent="1ueZpi8muVTtU1drRdIC-0">
          <mxGeometry y="104" width="160" height="26" as="geometry" />
        </mxCell>
        <mxCell id="1ueZpi8muVTtU1drRdIC-3" value="password" style="text;align=left;verticalAlign=top;spacingLeft=4;spacingRight=4;overflow=hidden;rotatable=0;points=[[0,0.5],[1,0.5]];portConstraint=eastwest;rounded=0;shadow=0;html=0;strokeWidth=1;fillColor=none;strokeColor=none;" vertex="1" parent="1ueZpi8muVTtU1drRdIC-0">
          <mxGeometry y="130" width="160" height="26" as="geometry" />
        </mxCell>
        <mxCell id="1ueZpi8muVTtU1drRdIC-9" value="icon" style="text;align=left;verticalAlign=top;spacingLeft=4;spacingRight=4;overflow=hidden;rotatable=0;points=[[0,0.5],[1,0.5]];portConstraint=eastwest;rounded=0;shadow=0;html=0;strokeWidth=1;fillColor=none;strokeColor=none;" vertex="1" parent="1ueZpi8muVTtU1drRdIC-0">
          <mxGeometry y="156" width="160" height="26" as="geometry" />
        </mxCell>
        <mxCell id="1ueZpi8muVTtU1drRdIC-94" value="type" style="text;align=left;verticalAlign=top;spacingLeft=4;spacingRight=4;overflow=hidden;rotatable=0;points=[[0,0.5],[1,0.5]];portConstraint=eastwest;rounded=0;shadow=0;html=0;strokeWidth=1;fillColor=none;strokeColor=none;" vertex="1" parent="1ueZpi8muVTtU1drRdIC-0">
          <mxGeometry y="182" width="160" height="26" as="geometry" />
        </mxCell>
        <mxCell id="1ueZpi8muVTtU1drRdIC-32" value="is_admin" style="text;align=left;verticalAlign=top;spacingLeft=4;spacingRight=4;overflow=hidden;rotatable=0;points=[[0,0.5],[1,0.5]];portConstraint=eastwest;rounded=0;shadow=0;html=0;strokeWidth=1;fillColor=none;strokeColor=none;" vertex="1" parent="1ueZpi8muVTtU1drRdIC-0">
          <mxGeometry y="208" width="160" height="26" as="geometry" />
        </mxCell>
        <mxCell id="1ueZpi8muVTtU1drRdIC-34" value="deleted" style="text;align=left;verticalAlign=top;spacingLeft=4;spacingRight=4;overflow=hidden;rotatable=0;points=[[0,0.5],[1,0.5]];portConstraint=eastwest;rounded=0;shadow=0;html=0;strokeWidth=1;fillColor=none;strokeColor=none;" vertex="1" parent="1ueZpi8muVTtU1drRdIC-0">
          <mxGeometry y="234" width="160" height="26" as="geometry" />
        </mxCell>
        <mxCell id="1ueZpi8muVTtU1drRdIC-10" value="Clients" style="swimlane;fontStyle=2;align=center;verticalAlign=top;childLayout=stackLayout;horizontal=1;startSize=26;horizontalStack=0;resizeParent=1;resizeLast=0;collapsible=1;marginBottom=0;rounded=0;shadow=0;strokeWidth=1;fillColor=#dae8fc;strokeColor=#6c8ebf;" vertex="1" parent="WIyWlLk6GJQsqaUBKTNV-1">
          <mxGeometry x="600" y="240" width="160" height="208" as="geometry">
            <mxRectangle x="230" y="140" width="160" height="26" as="alternateBounds" />
          </mxGeometry>
        </mxCell>
        <mxCell id="1ueZpi8muVTtU1drRdIC-11" value="id" style="text;align=left;verticalAlign=top;spacingLeft=4;spacingRight=4;overflow=hidden;rotatable=0;points=[[0,0.5],[1,0.5]];portConstraint=eastwest;" vertex="1" parent="1ueZpi8muVTtU1drRdIC-10">
          <mxGeometry y="26" width="160" height="26" as="geometry" />
        </mxCell>
        <mxCell id="1ueZpi8muVTtU1drRdIC-12" value="name" style="text;align=left;verticalAlign=top;spacingLeft=4;spacingRight=4;overflow=hidden;rotatable=0;points=[[0,0.5],[1,0.5]];portConstraint=eastwest;" vertex="1" parent="1ueZpi8muVTtU1drRdIC-10">
          <mxGeometry y="52" width="160" height="26" as="geometry" />
        </mxCell>
        <mxCell id="1ueZpi8muVTtU1drRdIC-14" value="email" style="text;align=left;verticalAlign=top;spacingLeft=4;spacingRight=4;overflow=hidden;rotatable=0;points=[[0,0.5],[1,0.5]];portConstraint=eastwest;rounded=0;shadow=0;html=0;" vertex="1" parent="1ueZpi8muVTtU1drRdIC-10">
          <mxGeometry y="78" width="160" height="26" as="geometry" />
        </mxCell>
        <mxCell id="1ueZpi8muVTtU1drRdIC-17" value="phone" style="text;align=left;verticalAlign=top;spacingLeft=4;spacingRight=4;overflow=hidden;rotatable=0;points=[[0,0.5],[1,0.5]];portConstraint=eastwest;rounded=0;shadow=0;html=0;" vertex="1" parent="1ueZpi8muVTtU1drRdIC-10">
          <mxGeometry y="104" width="160" height="26" as="geometry" />
        </mxCell>
        <mxCell id="1ueZpi8muVTtU1drRdIC-19" value="comment" style="text;align=left;verticalAlign=top;spacingLeft=4;spacingRight=4;overflow=hidden;rotatable=0;points=[[0,0.5],[1,0.5]];portConstraint=eastwest;rounded=0;shadow=0;html=0;" vertex="1" parent="1ueZpi8muVTtU1drRdIC-10">
          <mxGeometry y="130" width="160" height="26" as="geometry" />
        </mxCell>
        <mxCell id="1ueZpi8muVTtU1drRdIC-31" value="created_by" style="text;align=left;verticalAlign=top;spacingLeft=4;spacingRight=4;overflow=hidden;rotatable=0;points=[[0,0.5],[1,0.5]];portConstraint=eastwest;rounded=0;shadow=0;html=0;" vertex="1" parent="1ueZpi8muVTtU1drRdIC-10">
          <mxGeometry y="156" width="160" height="26" as="geometry" />
        </mxCell>
        <mxCell id="1ueZpi8muVTtU1drRdIC-36" value="deleted" style="text;align=left;verticalAlign=top;spacingLeft=4;spacingRight=4;overflow=hidden;rotatable=0;points=[[0,0.5],[1,0.5]];portConstraint=eastwest;rounded=0;shadow=0;html=0;strokeWidth=1;fillColor=none;strokeColor=none;" vertex="1" parent="1ueZpi8muVTtU1drRdIC-10">
          <mxGeometry y="182" width="160" height="26" as="geometry" />
        </mxCell>
        <mxCell id="1ueZpi8muVTtU1drRdIC-157" style="edgeStyle=orthogonalEdgeStyle;rounded=0;orthogonalLoop=1;jettySize=auto;html=1;entryX=0.5;entryY=1;entryDx=0;entryDy=0;strokeColor=default;align=center;verticalAlign=middle;fontFamily=Helvetica;fontSize=11;fontColor=default;labelBackgroundColor=default;jumpStyle=arc;jumpSize=13;startArrow=none;startFill=0;endArrow=none;endFill=0;endSize=24;exitX=0.75;exitY=1;exitDx=0;exitDy=0;" edge="1" parent="WIyWlLk6GJQsqaUBKTNV-1" source="1ueZpi8muVTtU1drRdIC-20" target="1ueZpi8muVTtU1drRdIC-120">
          <mxGeometry relative="1" as="geometry">
            <mxPoint x="500" y="660" as="sourcePoint" />
            <Array as="points">
              <mxPoint x="440" y="770" />
              <mxPoint x="-640" y="770" />
            </Array>
          </mxGeometry>
        </mxCell>
        <mxCell id="1ueZpi8muVTtU1drRdIC-20" value="Projects" style="swimlane;fontStyle=2;align=center;verticalAlign=top;childLayout=stackLayout;horizontal=1;startSize=26;horizontalStack=0;resizeParent=1;resizeLast=0;collapsible=1;marginBottom=0;rounded=0;shadow=0;strokeWidth=1;fillColor=#dae8fc;strokeColor=#6c8ebf;" vertex="1" parent="WIyWlLk6GJQsqaUBKTNV-1">
          <mxGeometry x="320" y="240" width="160" height="320" as="geometry">
            <mxRectangle x="230" y="140" width="160" height="26" as="alternateBounds" />
          </mxGeometry>
        </mxCell>
        <mxCell id="1ueZpi8muVTtU1drRdIC-21" value="id" style="text;align=left;verticalAlign=top;spacingLeft=4;spacingRight=4;overflow=hidden;rotatable=0;points=[[0,0.5],[1,0.5]];portConstraint=eastwest;" vertex="1" parent="1ueZpi8muVTtU1drRdIC-20">
          <mxGeometry y="26" width="160" height="26" as="geometry" />
        </mxCell>
        <mxCell id="1ueZpi8muVTtU1drRdIC-22" value="name" style="text;align=left;verticalAlign=top;spacingLeft=4;spacingRight=4;overflow=hidden;rotatable=0;points=[[0,0.5],[1,0.5]];portConstraint=eastwest;" vertex="1" parent="1ueZpi8muVTtU1drRdIC-20">
          <mxGeometry y="52" width="160" height="26" as="geometry" />
        </mxCell>
        <mxCell id="1ueZpi8muVTtU1drRdIC-29" value="type" style="text;align=left;verticalAlign=top;spacingLeft=4;spacingRight=4;overflow=hidden;rotatable=0;points=[[0,0.5],[1,0.5]];portConstraint=eastwest;" vertex="1" parent="1ueZpi8muVTtU1drRdIC-20">
          <mxGeometry y="78" width="160" height="26" as="geometry" />
        </mxCell>
        <mxCell id="1ueZpi8muVTtU1drRdIC-27" value="status" style="text;align=left;verticalAlign=top;spacingLeft=4;spacingRight=4;overflow=hidden;rotatable=0;points=[[0,0.5],[1,0.5]];portConstraint=eastwest;" vertex="1" parent="1ueZpi8muVTtU1drRdIC-20">
          <mxGeometry y="104" width="160" height="26" as="geometry" />
        </mxCell>
        <mxCell id="1ueZpi8muVTtU1drRdIC-84" value="budget" style="text;align=left;verticalAlign=top;spacingLeft=4;spacingRight=4;overflow=hidden;rotatable=0;points=[[0,0.5],[1,0.5]];portConstraint=eastwest;" vertex="1" parent="1ueZpi8muVTtU1drRdIC-20">
          <mxGeometry y="130" width="160" height="26" as="geometry" />
        </mxCell>
        <mxCell id="1ueZpi8muVTtU1drRdIC-25" value="comment" style="text;align=left;verticalAlign=top;spacingLeft=4;spacingRight=4;overflow=hidden;rotatable=0;points=[[0,0.5],[1,0.5]];portConstraint=eastwest;rounded=0;shadow=0;html=0;" vertex="1" parent="1ueZpi8muVTtU1drRdIC-20">
          <mxGeometry y="156" width="160" height="26" as="geometry" />
        </mxCell>
        <mxCell id="1ueZpi8muVTtU1drRdIC-136" value="manager" style="text;align=left;verticalAlign=top;spacingLeft=4;spacingRight=4;overflow=hidden;rotatable=0;points=[[0,0.5],[1,0.5]];portConstraint=eastwest;rounded=0;shadow=0;html=0;" vertex="1" parent="1ueZpi8muVTtU1drRdIC-20">
          <mxGeometry y="182" width="160" height="26" as="geometry" />
        </mxCell>
        <mxCell id="1ueZpi8muVTtU1drRdIC-180" value="is_internal_project" style="text;align=left;verticalAlign=top;spacingLeft=4;spacingRight=4;overflow=hidden;rotatable=0;points=[[0,0.5],[1,0.5]];portConstraint=eastwest;rounded=0;shadow=0;html=0;" vertex="1" parent="1ueZpi8muVTtU1drRdIC-20">
          <mxGeometry y="208" width="160" height="26" as="geometry" />
        </mxCell>
        <mxCell id="1ueZpi8muVTtU1drRdIC-28" value="created_by" style="text;align=left;verticalAlign=top;spacingLeft=4;spacingRight=4;overflow=hidden;rotatable=0;points=[[0,0.5],[1,0.5]];portConstraint=eastwest;rounded=0;shadow=0;html=0;" vertex="1" parent="1ueZpi8muVTtU1drRdIC-20">
          <mxGeometry y="234" width="160" height="26" as="geometry" />
        </mxCell>
        <mxCell id="1ueZpi8muVTtU1drRdIC-33" value="id_client" style="text;align=left;verticalAlign=top;spacingLeft=4;spacingRight=4;overflow=hidden;rotatable=0;points=[[0,0.5],[1,0.5]];portConstraint=eastwest;rounded=0;shadow=0;html=0;" vertex="1" parent="1ueZpi8muVTtU1drRdIC-20">
          <mxGeometry y="260" width="160" height="26" as="geometry" />
        </mxCell>
        <mxCell id="1ueZpi8muVTtU1drRdIC-35" value="deleted" style="text;align=left;verticalAlign=top;spacingLeft=4;spacingRight=4;overflow=hidden;rotatable=0;points=[[0,0.5],[1,0.5]];portConstraint=eastwest;rounded=0;shadow=0;html=0;strokeWidth=1;fillColor=none;strokeColor=none;" vertex="1" parent="1ueZpi8muVTtU1drRdIC-20">
          <mxGeometry y="286" width="160" height="26" as="geometry" />
        </mxCell>
        <mxCell id="1ueZpi8muVTtU1drRdIC-42" value="" style="endArrow=diamondThin;endFill=0;endSize=24;html=1;rounded=0;exitX=0.5;exitY=0;exitDx=0;exitDy=0;flowAnimation=0;shadow=0;entryX=1;entryY=0.5;entryDx=0;entryDy=0;" edge="1" parent="WIyWlLk6GJQsqaUBKTNV-1" source="1ueZpi8muVTtU1drRdIC-10" target="1ueZpi8muVTtU1drRdIC-32">
          <mxGeometry width="160" relative="1" as="geometry">
            <mxPoint x="630" y="137.09" as="sourcePoint" />
            <mxPoint x="630.6399999999999" y="59.997999999999905" as="targetPoint" />
            <Array as="points">
              <mxPoint x="680" y="141" />
            </Array>
          </mxGeometry>
        </mxCell>
        <mxCell id="1ueZpi8muVTtU1drRdIC-43" value="" style="endArrow=diamondThin;endFill=1;endSize=24;html=1;rounded=0;exitX=1;exitY=0.5;exitDx=0;exitDy=0;entryX=0;entryY=0.5;entryDx=0;entryDy=0;" edge="1" parent="WIyWlLk6GJQsqaUBKTNV-1" source="1ueZpi8muVTtU1drRdIC-27" target="1ueZpi8muVTtU1drRdIC-17">
          <mxGeometry width="160" relative="1" as="geometry">
            <mxPoint x="500" y="510" as="sourcePoint" />
            <mxPoint x="660" y="510" as="targetPoint" />
          </mxGeometry>
        </mxCell>
        <mxCell id="1ueZpi8muVTtU1drRdIC-47" value="Tasks" style="swimlane;fontStyle=2;align=center;verticalAlign=top;childLayout=stackLayout;horizontal=1;startSize=26;horizontalStack=0;resizeParent=1;resizeLast=0;collapsible=1;marginBottom=0;rounded=0;shadow=0;strokeWidth=1;fillColor=#dae8fc;strokeColor=#6c8ebf;" vertex="1" parent="WIyWlLk6GJQsqaUBKTNV-1">
          <mxGeometry x="40" y="240" width="160" height="312" as="geometry">
            <mxRectangle x="230" y="140" width="160" height="26" as="alternateBounds" />
          </mxGeometry>
        </mxCell>
        <mxCell id="1ueZpi8muVTtU1drRdIC-48" value="id" style="text;align=left;verticalAlign=top;spacingLeft=4;spacingRight=4;overflow=hidden;rotatable=0;points=[[0,0.5],[1,0.5]];portConstraint=eastwest;" vertex="1" parent="1ueZpi8muVTtU1drRdIC-47">
          <mxGeometry y="26" width="160" height="26" as="geometry" />
        </mxCell>
        <mxCell id="1ueZpi8muVTtU1drRdIC-49" value="name" style="text;align=left;verticalAlign=top;spacingLeft=4;spacingRight=4;overflow=hidden;rotatable=0;points=[[0,0.5],[1,0.5]];portConstraint=eastwest;" vertex="1" parent="1ueZpi8muVTtU1drRdIC-47">
          <mxGeometry y="52" width="160" height="26" as="geometry" />
        </mxCell>
        <mxCell id="1ueZpi8muVTtU1drRdIC-56" value="time_estimation" style="text;align=left;verticalAlign=top;spacingLeft=4;spacingRight=4;overflow=hidden;rotatable=0;points=[[0,0.5],[1,0.5]];portConstraint=eastwest;" vertex="1" parent="1ueZpi8muVTtU1drRdIC-47">
          <mxGeometry y="78" width="160" height="26" as="geometry" />
        </mxCell>
        <mxCell id="1ueZpi8muVTtU1drRdIC-182" value="deadline" style="text;align=left;verticalAlign=top;spacingLeft=4;spacingRight=4;overflow=hidden;rotatable=0;points=[[0,0.5],[1,0.5]];portConstraint=eastwest;" vertex="1" parent="1ueZpi8muVTtU1drRdIC-47">
          <mxGeometry y="104" width="160" height="26" as="geometry" />
        </mxCell>
        <mxCell id="1ueZpi8muVTtU1drRdIC-83" value="percentage" style="text;align=left;verticalAlign=top;spacingLeft=4;spacingRight=4;overflow=hidden;rotatable=0;points=[[0,0.5],[1,0.5]];portConstraint=eastwest;" vertex="1" parent="1ueZpi8muVTtU1drRdIC-47">
          <mxGeometry y="130" width="160" height="26" as="geometry" />
        </mxCell>
        <mxCell id="1ueZpi8muVTtU1drRdIC-50" value="description" style="text;align=left;verticalAlign=top;spacingLeft=4;spacingRight=4;overflow=hidden;rotatable=0;points=[[0,0.5],[1,0.5]];portConstraint=eastwest;" vertex="1" parent="1ueZpi8muVTtU1drRdIC-47">
          <mxGeometry y="156" width="160" height="26" as="geometry" />
        </mxCell>
        <mxCell id="1ueZpi8muVTtU1drRdIC-51" value="status" style="text;align=left;verticalAlign=top;spacingLeft=4;spacingRight=4;overflow=hidden;rotatable=0;points=[[0,0.5],[1,0.5]];portConstraint=eastwest;" vertex="1" parent="1ueZpi8muVTtU1drRdIC-47">
          <mxGeometry y="182" width="160" height="26" as="geometry" />
        </mxCell>
        <mxCell id="1ueZpi8muVTtU1drRdIC-172" value="importance_level" style="text;align=left;verticalAlign=top;spacingLeft=4;spacingRight=4;overflow=hidden;rotatable=0;points=[[0,0.5],[1,0.5]];portConstraint=eastwest;" vertex="1" parent="1ueZpi8muVTtU1drRdIC-47">
          <mxGeometry y="208" width="160" height="26" as="geometry" />
        </mxCell>
        <mxCell id="1ueZpi8muVTtU1drRdIC-53" value="created_by" style="text;align=left;verticalAlign=top;spacingLeft=4;spacingRight=4;overflow=hidden;rotatable=0;points=[[0,0.5],[1,0.5]];portConstraint=eastwest;rounded=0;shadow=0;html=0;" vertex="1" parent="1ueZpi8muVTtU1drRdIC-47">
          <mxGeometry y="234" width="160" height="26" as="geometry" />
        </mxCell>
        <mxCell id="1ueZpi8muVTtU1drRdIC-54" value="id_project" style="text;align=left;verticalAlign=top;spacingLeft=4;spacingRight=4;overflow=hidden;rotatable=0;points=[[0,0.5],[1,0.5]];portConstraint=eastwest;rounded=0;shadow=0;html=0;" vertex="1" parent="1ueZpi8muVTtU1drRdIC-47">
          <mxGeometry y="260" width="160" height="26" as="geometry" />
        </mxCell>
        <mxCell id="1ueZpi8muVTtU1drRdIC-55" value="deleted" style="text;align=left;verticalAlign=top;spacingLeft=4;spacingRight=4;overflow=hidden;rotatable=0;points=[[0,0.5],[1,0.5]];portConstraint=eastwest;rounded=0;shadow=0;html=0;strokeWidth=1;fillColor=none;strokeColor=none;" vertex="1" parent="1ueZpi8muVTtU1drRdIC-47">
          <mxGeometry y="286" width="160" height="26" as="geometry" />
        </mxCell>
        <mxCell id="1ueZpi8muVTtU1drRdIC-57" value="" style="endArrow=diamondThin;endFill=1;endSize=24;html=1;rounded=0;exitX=1;exitY=0.5;exitDx=0;exitDy=0;entryX=0;entryY=0.5;entryDx=0;entryDy=0;" edge="1" parent="WIyWlLk6GJQsqaUBKTNV-1" source="1ueZpi8muVTtU1drRdIC-182" target="1ueZpi8muVTtU1drRdIC-27">
          <mxGeometry width="160" relative="1" as="geometry">
            <mxPoint x="490" y="367" as="sourcePoint" />
            <mxPoint x="610" y="367" as="targetPoint" />
          </mxGeometry>
        </mxCell>
        <mxCell id="1ueZpi8muVTtU1drRdIC-58" style="edgeStyle=orthogonalEdgeStyle;rounded=0;orthogonalLoop=1;jettySize=auto;html=1;entryX=0.75;entryY=0;entryDx=0;entryDy=0;strokeColor=default;align=center;verticalAlign=middle;fontFamily=Helvetica;fontSize=11;fontColor=default;labelBackgroundColor=default;startArrow=none;startFill=0;endArrow=open;endFill=0;endSize=14;exitX=0;exitY=0.5;exitDx=0;exitDy=0;" edge="1" parent="WIyWlLk6GJQsqaUBKTNV-1" source="1ueZpi8muVTtU1drRdIC-2" target="1ueZpi8muVTtU1drRdIC-47">
          <mxGeometry relative="1" as="geometry" />
        </mxCell>
        <mxCell id="1ueZpi8muVTtU1drRdIC-181" style="edgeStyle=orthogonalEdgeStyle;rounded=0;orthogonalLoop=1;jettySize=auto;html=1;entryX=0.25;entryY=1;entryDx=0;entryDy=0;strokeColor=default;align=center;verticalAlign=middle;fontFamily=Helvetica;fontSize=11;fontColor=default;labelBackgroundColor=default;jumpStyle=arc;jumpSize=13;startArrow=none;startFill=0;endArrow=none;endFill=0;endSize=24;" edge="1" parent="WIyWlLk6GJQsqaUBKTNV-1" source="1ueZpi8muVTtU1drRdIC-59" target="1ueZpi8muVTtU1drRdIC-20">
          <mxGeometry relative="1" as="geometry">
            <mxPoint x="-110" y="710" as="targetPoint" />
            <Array as="points">
              <mxPoint x="-160" y="730" />
              <mxPoint x="360" y="730" />
            </Array>
          </mxGeometry>
        </mxCell>
        <mxCell id="1ueZpi8muVTtU1drRdIC-59" value="Scheduled Tasks" style="swimlane;fontStyle=2;align=center;verticalAlign=top;childLayout=stackLayout;horizontal=1;startSize=26;horizontalStack=0;resizeParent=1;resizeLast=0;collapsible=1;marginBottom=0;rounded=0;shadow=0;strokeWidth=1;fillColor=#dae8fc;strokeColor=#6c8ebf;" vertex="1" parent="WIyWlLk6GJQsqaUBKTNV-1">
          <mxGeometry x="-240" y="240" width="160" height="208" as="geometry">
            <mxRectangle x="230" y="140" width="160" height="26" as="alternateBounds" />
          </mxGeometry>
        </mxCell>
        <mxCell id="1ueZpi8muVTtU1drRdIC-60" value="id" style="text;align=left;verticalAlign=top;spacingLeft=4;spacingRight=4;overflow=hidden;rotatable=0;points=[[0,0.5],[1,0.5]];portConstraint=eastwest;" vertex="1" parent="1ueZpi8muVTtU1drRdIC-59">
          <mxGeometry y="26" width="160" height="26" as="geometry" />
        </mxCell>
        <mxCell id="1ueZpi8muVTtU1drRdIC-61" value="date" style="text;align=left;verticalAlign=top;spacingLeft=4;spacingRight=4;overflow=hidden;rotatable=0;points=[[0,0.5],[1,0.5]];portConstraint=eastwest;" vertex="1" parent="1ueZpi8muVTtU1drRdIC-59">
          <mxGeometry y="52" width="160" height="26" as="geometry" />
        </mxCell>
        <mxCell id="1ueZpi8muVTtU1drRdIC-62" value="hours" style="text;align=left;verticalAlign=top;spacingLeft=4;spacingRight=4;overflow=hidden;rotatable=0;points=[[0,0.5],[1,0.5]];portConstraint=eastwest;" vertex="1" parent="1ueZpi8muVTtU1drRdIC-59">
          <mxGeometry y="78" width="160" height="26" as="geometry" />
        </mxCell>
        <mxCell id="1ueZpi8muVTtU1drRdIC-66" value="id_task" style="text;align=left;verticalAlign=top;spacingLeft=4;spacingRight=4;overflow=hidden;rotatable=0;points=[[0,0.5],[1,0.5]];portConstraint=eastwest;rounded=0;shadow=0;html=0;" vertex="1" parent="1ueZpi8muVTtU1drRdIC-59">
          <mxGeometry y="104" width="160" height="26" as="geometry" />
        </mxCell>
        <mxCell id="1ueZpi8muVTtU1drRdIC-179" value="id_project" style="text;align=left;verticalAlign=top;spacingLeft=4;spacingRight=4;overflow=hidden;rotatable=0;points=[[0,0.5],[1,0.5]];portConstraint=eastwest;rounded=0;shadow=0;html=0;" vertex="1" parent="1ueZpi8muVTtU1drRdIC-59">
          <mxGeometry y="130" width="160" height="26" as="geometry" />
        </mxCell>
        <mxCell id="1ueZpi8muVTtU1drRdIC-65" value="created_by" style="text;align=left;verticalAlign=top;spacingLeft=4;spacingRight=4;overflow=hidden;rotatable=0;points=[[0,0.5],[1,0.5]];portConstraint=eastwest;rounded=0;shadow=0;html=0;" vertex="1" parent="1ueZpi8muVTtU1drRdIC-59">
          <mxGeometry y="156" width="160" height="26" as="geometry" />
        </mxCell>
        <mxCell id="1ueZpi8muVTtU1drRdIC-67" value="deleted" style="text;align=left;verticalAlign=top;spacingLeft=4;spacingRight=4;overflow=hidden;rotatable=0;points=[[0,0.5],[1,0.5]];portConstraint=eastwest;rounded=0;shadow=0;html=0;strokeWidth=1;fillColor=none;strokeColor=none;" vertex="1" parent="1ueZpi8muVTtU1drRdIC-59">
          <mxGeometry y="182" width="160" height="26" as="geometry" />
        </mxCell>
        <mxCell id="1ueZpi8muVTtU1drRdIC-68" style="edgeStyle=orthogonalEdgeStyle;rounded=0;orthogonalLoop=1;jettySize=auto;html=1;entryX=0;entryY=0.5;entryDx=0;entryDy=0;strokeColor=default;align=center;verticalAlign=middle;fontFamily=Helvetica;fontSize=11;fontColor=default;labelBackgroundColor=default;startArrow=none;startFill=0;endArrow=none;endFill=0;endSize=24;exitX=1;exitY=0.5;exitDx=0;exitDy=0;" edge="1" parent="WIyWlLk6GJQsqaUBKTNV-1" source="1ueZpi8muVTtU1drRdIC-66" target="1ueZpi8muVTtU1drRdIC-182">
          <mxGeometry relative="1" as="geometry" />
        </mxCell>
        <mxCell id="1ueZpi8muVTtU1drRdIC-81" style="edgeStyle=orthogonalEdgeStyle;rounded=0;orthogonalLoop=1;jettySize=auto;html=1;entryX=0.25;entryY=0;entryDx=0;entryDy=0;strokeColor=default;align=center;verticalAlign=middle;fontFamily=Helvetica;fontSize=11;fontColor=default;labelBackgroundColor=default;startArrow=none;startFill=0;endArrow=diamondThin;endFill=1;endSize=24;jumpStyle=arc;jumpSize=13;" edge="1" parent="WIyWlLk6GJQsqaUBKTNV-1" source="1ueZpi8muVTtU1drRdIC-70" target="1ueZpi8muVTtU1drRdIC-47">
          <mxGeometry relative="1" as="geometry" />
        </mxCell>
        <mxCell id="1ueZpi8muVTtU1drRdIC-70" value="Task Files" style="swimlane;fontStyle=2;align=center;verticalAlign=top;childLayout=stackLayout;horizontal=1;startSize=26;horizontalStack=0;resizeParent=1;resizeLast=0;collapsible=1;marginBottom=0;rounded=0;shadow=0;strokeWidth=1;fillColor=#dae8fc;strokeColor=#6c8ebf;" vertex="1" parent="WIyWlLk6GJQsqaUBKTNV-1">
          <mxGeometry y="-240" width="160" height="156" as="geometry">
            <mxRectangle x="230" y="140" width="160" height="26" as="alternateBounds" />
          </mxGeometry>
        </mxCell>
        <mxCell id="1ueZpi8muVTtU1drRdIC-71" value="id" style="text;align=left;verticalAlign=top;spacingLeft=4;spacingRight=4;overflow=hidden;rotatable=0;points=[[0,0.5],[1,0.5]];portConstraint=eastwest;" vertex="1" parent="1ueZpi8muVTtU1drRdIC-70">
          <mxGeometry y="26" width="160" height="26" as="geometry" />
        </mxCell>
        <mxCell id="1ueZpi8muVTtU1drRdIC-72" value="name" style="text;align=left;verticalAlign=top;spacingLeft=4;spacingRight=4;overflow=hidden;rotatable=0;points=[[0,0.5],[1,0.5]];portConstraint=eastwest;" vertex="1" parent="1ueZpi8muVTtU1drRdIC-70">
          <mxGeometry y="52" width="160" height="26" as="geometry" />
        </mxCell>
        <mxCell id="1ueZpi8muVTtU1drRdIC-73" value="file_path" style="text;align=left;verticalAlign=top;spacingLeft=4;spacingRight=4;overflow=hidden;rotatable=0;points=[[0,0.5],[1,0.5]];portConstraint=eastwest;" vertex="1" parent="1ueZpi8muVTtU1drRdIC-70">
          <mxGeometry y="78" width="160" height="26" as="geometry" />
        </mxCell>
        <mxCell id="1ueZpi8muVTtU1drRdIC-76" value="added_by" style="text;align=left;verticalAlign=top;spacingLeft=4;spacingRight=4;overflow=hidden;rotatable=0;points=[[0,0.5],[1,0.5]];portConstraint=eastwest;rounded=0;shadow=0;html=0;" vertex="1" parent="1ueZpi8muVTtU1drRdIC-70">
          <mxGeometry y="104" width="160" height="26" as="geometry" />
        </mxCell>
        <mxCell id="1ueZpi8muVTtU1drRdIC-77" value="id_task" style="text;align=left;verticalAlign=top;spacingLeft=4;spacingRight=4;overflow=hidden;rotatable=0;points=[[0,0.5],[1,0.5]];portConstraint=eastwest;rounded=0;shadow=0;html=0;" vertex="1" parent="1ueZpi8muVTtU1drRdIC-70">
          <mxGeometry y="130" width="160" height="26" as="geometry" />
        </mxCell>
        <mxCell id="1ueZpi8muVTtU1drRdIC-82" style="edgeStyle=orthogonalEdgeStyle;rounded=0;orthogonalLoop=1;jettySize=auto;html=1;entryX=1;entryY=0.5;entryDx=0;entryDy=0;strokeColor=default;align=center;verticalAlign=middle;fontFamily=Helvetica;fontSize=11;fontColor=default;labelBackgroundColor=default;startArrow=none;startFill=0;endArrow=open;endFill=0;endSize=14;" edge="1" parent="WIyWlLk6GJQsqaUBKTNV-1" source="1ueZpi8muVTtU1drRdIC-2" target="1ueZpi8muVTtU1drRdIC-73">
          <mxGeometry relative="1" as="geometry" />
        </mxCell>
        <mxCell id="1ueZpi8muVTtU1drRdIC-85" value="Messages" style="swimlane;fontStyle=2;align=center;verticalAlign=top;childLayout=stackLayout;horizontal=1;startSize=26;horizontalStack=0;resizeParent=1;resizeLast=0;collapsible=1;marginBottom=0;rounded=0;shadow=0;strokeWidth=1;fillColor=#dae8fc;strokeColor=#6c8ebf;" vertex="1" parent="WIyWlLk6GJQsqaUBKTNV-1">
          <mxGeometry x="600" y="-266" width="160" height="130" as="geometry">
            <mxRectangle x="230" y="140" width="160" height="26" as="alternateBounds" />
          </mxGeometry>
        </mxCell>
        <mxCell id="1ueZpi8muVTtU1drRdIC-86" value="id" style="text;align=left;verticalAlign=top;spacingLeft=4;spacingRight=4;overflow=hidden;rotatable=0;points=[[0,0.5],[1,0.5]];portConstraint=eastwest;strokeWidth=1;fillColor=none;strokeColor=none;" vertex="1" parent="1ueZpi8muVTtU1drRdIC-85">
          <mxGeometry y="26" width="160" height="26" as="geometry" />
        </mxCell>
        <mxCell id="1ueZpi8muVTtU1drRdIC-87" value="date" style="text;align=left;verticalAlign=top;spacingLeft=4;spacingRight=4;overflow=hidden;rotatable=0;points=[[0,0.5],[1,0.5]];portConstraint=eastwest;strokeWidth=1;fillColor=none;strokeColor=none;" vertex="1" parent="1ueZpi8muVTtU1drRdIC-85">
          <mxGeometry y="52" width="160" height="26" as="geometry" />
        </mxCell>
        <mxCell id="1ueZpi8muVTtU1drRdIC-88" value="content" style="text;align=left;verticalAlign=top;spacingLeft=4;spacingRight=4;overflow=hidden;rotatable=0;points=[[0,0.5],[1,0.5]];portConstraint=eastwest;strokeWidth=1;fillColor=none;strokeColor=none;" vertex="1" parent="1ueZpi8muVTtU1drRdIC-85">
          <mxGeometry y="78" width="160" height="26" as="geometry" />
        </mxCell>
        <mxCell id="1ueZpi8muVTtU1drRdIC-89" value="user" style="text;align=left;verticalAlign=top;spacingLeft=4;spacingRight=4;overflow=hidden;rotatable=0;points=[[0,0.5],[1,0.5]];portConstraint=eastwest;rounded=0;shadow=0;html=0;strokeWidth=1;fillColor=none;strokeColor=none;" vertex="1" parent="1ueZpi8muVTtU1drRdIC-85">
          <mxGeometry y="104" width="160" height="26" as="geometry" />
        </mxCell>
        <mxCell id="1ueZpi8muVTtU1drRdIC-95" value="Message Files" style="swimlane;fontStyle=2;align=center;verticalAlign=top;childLayout=stackLayout;horizontal=1;startSize=26;horizontalStack=0;resizeParent=1;resizeLast=0;collapsible=1;marginBottom=0;rounded=0;shadow=0;strokeWidth=1;fillColor=#dae8fc;strokeColor=#6c8ebf;" vertex="1" parent="WIyWlLk6GJQsqaUBKTNV-1">
          <mxGeometry x="880" y="-266" width="160" height="104" as="geometry">
            <mxRectangle x="230" y="140" width="160" height="26" as="alternateBounds" />
          </mxGeometry>
        </mxCell>
        <mxCell id="1ueZpi8muVTtU1drRdIC-96" value="id" style="text;align=left;verticalAlign=top;spacingLeft=4;spacingRight=4;overflow=hidden;rotatable=0;points=[[0,0.5],[1,0.5]];portConstraint=eastwest;strokeWidth=1;fillColor=none;strokeColor=none;" vertex="1" parent="1ueZpi8muVTtU1drRdIC-95">
          <mxGeometry y="26" width="160" height="26" as="geometry" />
        </mxCell>
        <mxCell id="1ueZpi8muVTtU1drRdIC-97" value="path" style="text;align=left;verticalAlign=top;spacingLeft=4;spacingRight=4;overflow=hidden;rotatable=0;points=[[0,0.5],[1,0.5]];portConstraint=eastwest;strokeWidth=1;fillColor=none;strokeColor=none;" vertex="1" parent="1ueZpi8muVTtU1drRdIC-95">
          <mxGeometry y="52" width="160" height="26" as="geometry" />
        </mxCell>
        <mxCell id="1ueZpi8muVTtU1drRdIC-98" value="id_message" style="text;align=left;verticalAlign=top;spacingLeft=4;spacingRight=4;overflow=hidden;rotatable=0;points=[[0,0.5],[1,0.5]];portConstraint=eastwest;strokeWidth=1;fillColor=none;strokeColor=none;" vertex="1" parent="1ueZpi8muVTtU1drRdIC-95">
          <mxGeometry y="78" width="160" height="26" as="geometry" />
        </mxCell>
        <mxCell id="1ueZpi8muVTtU1drRdIC-100" style="edgeStyle=orthogonalEdgeStyle;rounded=0;orthogonalLoop=1;jettySize=auto;html=1;entryX=1;entryY=0.5;entryDx=0;entryDy=0;strokeColor=default;align=center;verticalAlign=middle;fontFamily=Helvetica;fontSize=11;fontColor=default;labelBackgroundColor=default;startArrow=none;startFill=0;endArrow=diamondThin;endFill=1;endSize=24;jumpStyle=arc;jumpSize=13;exitX=0;exitY=0.5;exitDx=0;exitDy=0;" edge="1" parent="WIyWlLk6GJQsqaUBKTNV-1" source="1ueZpi8muVTtU1drRdIC-97" target="1ueZpi8muVTtU1drRdIC-87">
          <mxGeometry relative="1" as="geometry">
            <mxPoint x="370" y="64" as="sourcePoint" />
            <mxPoint x="370" y="384" as="targetPoint" />
          </mxGeometry>
        </mxCell>
        <mxCell id="1ueZpi8muVTtU1drRdIC-131" style="edgeStyle=orthogonalEdgeStyle;rounded=0;orthogonalLoop=1;jettySize=auto;html=1;entryX=0.5;entryY=0;entryDx=0;entryDy=0;strokeColor=default;align=center;verticalAlign=middle;fontFamily=Helvetica;fontSize=11;fontColor=default;labelBackgroundColor=default;startArrow=none;startFill=0;endArrow=block;endFill=0;endSize=14;exitX=0.5;exitY=0;exitDx=0;exitDy=0;" edge="1" parent="WIyWlLk6GJQsqaUBKTNV-1" source="1ueZpi8muVTtU1drRdIC-120" target="1ueZpi8muVTtU1drRdIC-106">
          <mxGeometry relative="1" as="geometry">
            <Array as="points">
              <mxPoint x="-640" y="-290" />
              <mxPoint x="400" y="-290" />
            </Array>
          </mxGeometry>
        </mxCell>
        <mxCell id="1ueZpi8muVTtU1drRdIC-101" value="User Conversations" style="swimlane;fontStyle=2;align=center;verticalAlign=top;childLayout=stackLayout;horizontal=1;startSize=26;horizontalStack=0;resizeParent=1;resizeLast=0;collapsible=1;marginBottom=0;rounded=0;shadow=0;strokeWidth=1;fillColor=#dae8fc;strokeColor=#6c8ebf;" vertex="1" parent="WIyWlLk6GJQsqaUBKTNV-1">
          <mxGeometry x="-320" y="-240" width="160" height="110" as="geometry">
            <mxRectangle x="230" y="140" width="160" height="26" as="alternateBounds" />
          </mxGeometry>
        </mxCell>
        <mxCell id="1ueZpi8muVTtU1drRdIC-102" value="id" style="text;align=left;verticalAlign=top;spacingLeft=4;spacingRight=4;overflow=hidden;rotatable=0;points=[[0,0.5],[1,0.5]];portConstraint=eastwest;strokeWidth=1;fillColor=none;strokeColor=none;" vertex="1" parent="1ueZpi8muVTtU1drRdIC-101">
          <mxGeometry y="26" width="160" height="26" as="geometry" />
        </mxCell>
        <mxCell id="1ueZpi8muVTtU1drRdIC-105" value="user_1" style="text;align=left;verticalAlign=top;spacingLeft=4;spacingRight=4;overflow=hidden;rotatable=0;points=[[0,0.5],[1,0.5]];portConstraint=eastwest;rounded=0;shadow=0;html=0;strokeWidth=1;fillColor=none;strokeColor=none;" vertex="1" parent="1ueZpi8muVTtU1drRdIC-101">
          <mxGeometry y="52" width="160" height="26" as="geometry" />
        </mxCell>
        <mxCell id="1ueZpi8muVTtU1drRdIC-117" value="user_2" style="text;align=left;verticalAlign=top;spacingLeft=4;spacingRight=4;overflow=hidden;rotatable=0;points=[[0,0.5],[1,0.5]];portConstraint=eastwest;rounded=0;shadow=0;html=0;strokeWidth=1;fillColor=none;strokeColor=none;" vertex="1" parent="1ueZpi8muVTtU1drRdIC-101">
          <mxGeometry y="78" width="160" height="26" as="geometry" />
        </mxCell>
        <mxCell id="1ueZpi8muVTtU1drRdIC-106" value="Conversations" style="swimlane;fontStyle=2;align=center;verticalAlign=top;childLayout=stackLayout;horizontal=1;startSize=26;horizontalStack=0;resizeParent=1;resizeLast=0;collapsible=1;marginBottom=0;rounded=0;shadow=0;strokeWidth=1;fillColor=#ffe6cc;strokeColor=#d79b00;" vertex="1" parent="WIyWlLk6GJQsqaUBKTNV-1">
          <mxGeometry x="320" y="-240" width="160" height="78" as="geometry">
            <mxRectangle x="230" y="140" width="160" height="26" as="alternateBounds" />
          </mxGeometry>
        </mxCell>
        <mxCell id="1ueZpi8muVTtU1drRdIC-107" value="id" style="text;align=left;verticalAlign=top;spacingLeft=4;spacingRight=4;overflow=hidden;rotatable=0;points=[[0,0.5],[1,0.5]];portConstraint=eastwest;strokeWidth=1;fillColor=none;strokeColor=none;" vertex="1" parent="1ueZpi8muVTtU1drRdIC-106">
          <mxGeometry y="26" width="160" height="26" as="geometry" />
        </mxCell>
        <mxCell id="1ueZpi8muVTtU1drRdIC-108" value="date" style="text;align=left;verticalAlign=top;spacingLeft=4;spacingRight=4;overflow=hidden;rotatable=0;points=[[0,0.5],[1,0.5]];portConstraint=eastwest;strokeWidth=1;fillColor=none;strokeColor=none;" vertex="1" parent="1ueZpi8muVTtU1drRdIC-106">
          <mxGeometry y="52" width="160" height="26" as="geometry" />
        </mxCell>
        <mxCell id="1ueZpi8muVTtU1drRdIC-130" style="edgeStyle=orthogonalEdgeStyle;rounded=0;orthogonalLoop=1;jettySize=auto;html=1;entryX=0.5;entryY=0;entryDx=0;entryDy=0;strokeColor=default;align=center;verticalAlign=middle;fontFamily=Helvetica;fontSize=11;fontColor=default;labelBackgroundColor=default;startArrow=none;startFill=0;endArrow=block;endFill=0;endSize=14;exitX=0.5;exitY=0;exitDx=0;exitDy=0;" edge="1" parent="WIyWlLk6GJQsqaUBKTNV-1" source="1ueZpi8muVTtU1drRdIC-124" target="1ueZpi8muVTtU1drRdIC-106">
          <mxGeometry relative="1" as="geometry">
            <Array as="points">
              <mxPoint x="-440" y="-290" />
              <mxPoint x="400" y="-290" />
            </Array>
          </mxGeometry>
        </mxCell>
        <mxCell id="1ueZpi8muVTtU1drRdIC-120" value="Project Conversations" style="swimlane;fontStyle=2;align=center;verticalAlign=top;childLayout=stackLayout;horizontal=1;startSize=26;horizontalStack=0;resizeParent=1;resizeLast=0;collapsible=1;marginBottom=0;rounded=0;shadow=0;strokeWidth=1;fillColor=#dae8fc;strokeColor=#6c8ebf;" vertex="1" parent="WIyWlLk6GJQsqaUBKTNV-1">
          <mxGeometry x="-720" y="-240" width="160" height="90" as="geometry">
            <mxRectangle x="230" y="140" width="160" height="26" as="alternateBounds" />
          </mxGeometry>
        </mxCell>
        <mxCell id="1ueZpi8muVTtU1drRdIC-121" value="id" style="text;align=left;verticalAlign=top;spacingLeft=4;spacingRight=4;overflow=hidden;rotatable=0;points=[[0,0.5],[1,0.5]];portConstraint=eastwest;strokeWidth=1;fillColor=none;strokeColor=none;" vertex="1" parent="1ueZpi8muVTtU1drRdIC-120">
          <mxGeometry y="26" width="160" height="26" as="geometry" />
        </mxCell>
        <mxCell id="1ueZpi8muVTtU1drRdIC-122" value="id_projet" style="text;align=left;verticalAlign=top;spacingLeft=4;spacingRight=4;overflow=hidden;rotatable=0;points=[[0,0.5],[1,0.5]];portConstraint=eastwest;rounded=0;shadow=0;html=0;strokeWidth=1;fillColor=none;strokeColor=none;" vertex="1" parent="1ueZpi8muVTtU1drRdIC-120">
          <mxGeometry y="52" width="160" height="26" as="geometry" />
        </mxCell>
        <mxCell id="1ueZpi8muVTtU1drRdIC-129" style="edgeStyle=orthogonalEdgeStyle;rounded=0;orthogonalLoop=1;jettySize=auto;html=1;entryX=0.5;entryY=0;entryDx=0;entryDy=0;strokeColor=default;align=center;verticalAlign=middle;fontFamily=Helvetica;fontSize=11;fontColor=default;labelBackgroundColor=default;startArrow=none;startFill=0;endArrow=block;endFill=0;endSize=14;exitX=0.5;exitY=0;exitDx=0;exitDy=0;" edge="1" parent="WIyWlLk6GJQsqaUBKTNV-1" source="1ueZpi8muVTtU1drRdIC-101" target="1ueZpi8muVTtU1drRdIC-106">
          <mxGeometry relative="1" as="geometry">
            <Array as="points">
              <mxPoint x="-240" y="-290" />
              <mxPoint x="400" y="-290" />
            </Array>
          </mxGeometry>
        </mxCell>
        <mxCell id="1ueZpi8muVTtU1drRdIC-173" style="edgeStyle=orthogonalEdgeStyle;rounded=0;orthogonalLoop=1;jettySize=auto;html=1;entryX=0;entryY=0.5;entryDx=0;entryDy=0;endArrow=none;endFill=0;strokeColor=default;align=center;verticalAlign=middle;fontFamily=Helvetica;fontSize=11;fontColor=default;labelBackgroundColor=default;jumpStyle=arc;jumpSize=13;startArrow=none;startFill=0;endSize=24;" edge="1" parent="WIyWlLk6GJQsqaUBKTNV-1" source="1ueZpi8muVTtU1drRdIC-124" target="1ueZpi8muVTtU1drRdIC-54">
          <mxGeometry relative="1" as="geometry" />
        </mxCell>
        <mxCell id="1ueZpi8muVTtU1drRdIC-124" value="Task Conversations" style="swimlane;fontStyle=2;align=center;verticalAlign=top;childLayout=stackLayout;horizontal=1;startSize=26;horizontalStack=0;resizeParent=1;resizeLast=0;collapsible=1;marginBottom=0;rounded=0;shadow=0;strokeWidth=1;fillColor=#dae8fc;strokeColor=#6c8ebf;" vertex="1" parent="WIyWlLk6GJQsqaUBKTNV-1">
          <mxGeometry x="-520" y="-240" width="160" height="90" as="geometry">
            <mxRectangle x="230" y="140" width="160" height="26" as="alternateBounds" />
          </mxGeometry>
        </mxCell>
        <mxCell id="1ueZpi8muVTtU1drRdIC-125" value="id" style="text;align=left;verticalAlign=top;spacingLeft=4;spacingRight=4;overflow=hidden;rotatable=0;points=[[0,0.5],[1,0.5]];portConstraint=eastwest;strokeWidth=1;fillColor=none;strokeColor=none;" vertex="1" parent="1ueZpi8muVTtU1drRdIC-124">
          <mxGeometry y="26" width="160" height="26" as="geometry" />
        </mxCell>
        <mxCell id="1ueZpi8muVTtU1drRdIC-126" value="id_task" style="text;align=left;verticalAlign=top;spacingLeft=4;spacingRight=4;overflow=hidden;rotatable=0;points=[[0,0.5],[1,0.5]];portConstraint=eastwest;rounded=0;shadow=0;html=0;strokeWidth=1;fillColor=none;strokeColor=none;" vertex="1" parent="1ueZpi8muVTtU1drRdIC-124">
          <mxGeometry y="52" width="160" height="26" as="geometry" />
        </mxCell>
        <mxCell id="1ueZpi8muVTtU1drRdIC-132" style="edgeStyle=orthogonalEdgeStyle;rounded=0;orthogonalLoop=1;jettySize=auto;html=1;entryX=1;entryY=0.5;entryDx=0;entryDy=0;strokeColor=default;align=center;verticalAlign=middle;fontFamily=Helvetica;fontSize=11;fontColor=default;labelBackgroundColor=default;jumpStyle=arc;jumpSize=13;startArrow=none;startFill=0;endArrow=diamondThin;endFill=1;endSize=24;" edge="1" parent="WIyWlLk6GJQsqaUBKTNV-1" source="1ueZpi8muVTtU1drRdIC-87" target="1ueZpi8muVTtU1drRdIC-107">
          <mxGeometry relative="1" as="geometry" />
        </mxCell>
        <mxCell id="1ueZpi8muVTtU1drRdIC-133" style="edgeStyle=orthogonalEdgeStyle;rounded=0;orthogonalLoop=1;jettySize=auto;html=1;entryX=0.5;entryY=1;entryDx=0;entryDy=0;strokeColor=default;align=center;verticalAlign=middle;fontFamily=Helvetica;fontSize=11;fontColor=default;labelBackgroundColor=default;startArrow=none;startFill=0;endArrow=open;endFill=0;endSize=14;exitX=1;exitY=0.5;exitDx=0;exitDy=0;" edge="1" parent="WIyWlLk6GJQsqaUBKTNV-1" source="1ueZpi8muVTtU1drRdIC-8" target="1ueZpi8muVTtU1drRdIC-85">
          <mxGeometry relative="1" as="geometry" />
        </mxCell>
        <mxCell id="1ueZpi8muVTtU1drRdIC-134" style="edgeStyle=orthogonalEdgeStyle;rounded=0;orthogonalLoop=1;jettySize=auto;html=1;strokeColor=default;align=center;verticalAlign=middle;fontFamily=Helvetica;fontSize=11;fontColor=default;labelBackgroundColor=default;startArrow=none;startFill=0;endArrow=open;endFill=0;endSize=14;exitX=1;exitY=0.5;exitDx=0;exitDy=0;entryX=0.5;entryY=1;entryDx=0;entryDy=0;" edge="1" parent="WIyWlLk6GJQsqaUBKTNV-1" source="1ueZpi8muVTtU1drRdIC-8" target="1ueZpi8muVTtU1drRdIC-95">
          <mxGeometry relative="1" as="geometry">
            <mxPoint x="720" y="-1" as="sourcePoint" />
            <mxPoint x="960" y="-122" as="targetPoint" />
          </mxGeometry>
        </mxCell>
        <mxCell id="1ueZpi8muVTtU1drRdIC-148" style="edgeStyle=orthogonalEdgeStyle;rounded=0;orthogonalLoop=1;jettySize=auto;html=1;entryX=0.5;entryY=1;entryDx=0;entryDy=0;shadow=0;strokeColor=default;align=center;verticalAlign=middle;fontFamily=Helvetica;fontSize=11;fontColor=default;labelBackgroundColor=default;endArrow=diamondThin;endFill=1;endSize=24;flowAnimation=0;" edge="1" parent="WIyWlLk6GJQsqaUBKTNV-1" source="1ueZpi8muVTtU1drRdIC-138" target="1ueZpi8muVTtU1drRdIC-47">
          <mxGeometry relative="1" as="geometry">
            <mxPoint x="119.99999999999955" y="530" as="targetPoint" />
          </mxGeometry>
        </mxCell>
        <mxCell id="1ueZpi8muVTtU1drRdIC-138" value="Task Users" style="swimlane;fontStyle=2;align=center;verticalAlign=top;childLayout=stackLayout;horizontal=1;startSize=26;horizontalStack=0;resizeParent=1;resizeLast=0;collapsible=1;marginBottom=0;rounded=0;shadow=0;strokeWidth=1;fillColor=#dae8fc;strokeColor=#6c8ebf;" vertex="1" parent="WIyWlLk6GJQsqaUBKTNV-1">
          <mxGeometry x="40" y="600" width="160" height="104" as="geometry">
            <mxRectangle x="230" y="140" width="160" height="26" as="alternateBounds" />
          </mxGeometry>
        </mxCell>
        <mxCell id="1ueZpi8muVTtU1drRdIC-139" value="id" style="text;align=left;verticalAlign=top;spacingLeft=4;spacingRight=4;overflow=hidden;rotatable=0;points=[[0,0.5],[1,0.5]];portConstraint=eastwest;" vertex="1" parent="1ueZpi8muVTtU1drRdIC-138">
          <mxGeometry y="26" width="160" height="26" as="geometry" />
        </mxCell>
        <mxCell id="1ueZpi8muVTtU1drRdIC-140" value="id_task" style="text;align=left;verticalAlign=top;spacingLeft=4;spacingRight=4;overflow=hidden;rotatable=0;points=[[0,0.5],[1,0.5]];portConstraint=eastwest;" vertex="1" parent="1ueZpi8muVTtU1drRdIC-138">
          <mxGeometry y="52" width="160" height="26" as="geometry" />
        </mxCell>
        <mxCell id="1ueZpi8muVTtU1drRdIC-141" value="id_user" style="text;align=left;verticalAlign=top;spacingLeft=4;spacingRight=4;overflow=hidden;rotatable=0;points=[[0,0.5],[1,0.5]];portConstraint=eastwest;" vertex="1" parent="1ueZpi8muVTtU1drRdIC-138">
          <mxGeometry y="78" width="160" height="26" as="geometry" />
        </mxCell>
        <mxCell id="1ueZpi8muVTtU1drRdIC-156" style="edgeStyle=orthogonalEdgeStyle;rounded=0;orthogonalLoop=1;jettySize=auto;html=1;strokeColor=default;align=center;verticalAlign=middle;fontFamily=Helvetica;fontSize=11;fontColor=default;labelBackgroundColor=default;startArrow=none;startFill=0;endArrow=none;endFill=0;endSize=24;jumpStyle=arc;jumpSize=13;entryX=0.5;entryY=1;entryDx=0;entryDy=0;exitX=0;exitY=0.5;exitDx=0;exitDy=0;" edge="1" parent="WIyWlLk6GJQsqaUBKTNV-1" source="1ueZpi8muVTtU1drRdIC-94" target="1ueZpi8muVTtU1drRdIC-101">
          <mxGeometry relative="1" as="geometry">
            <mxPoint x="-460" y="-10" as="sourcePoint" />
            <mxPoint x="-640" y="-100" as="targetPoint" />
          </mxGeometry>
        </mxCell>
        <mxCell id="1ueZpi8muVTtU1drRdIC-158" value="Class" style="swimlane;fontStyle=2;align=center;verticalAlign=top;childLayout=stackLayout;horizontal=1;startSize=26;horizontalStack=0;resizeParent=1;resizeLast=0;collapsible=1;marginBottom=0;rounded=0;shadow=0;strokeWidth=1;fillColor=#dae8fc;strokeColor=#6c8ebf;" vertex="1" parent="WIyWlLk6GJQsqaUBKTNV-1">
          <mxGeometry x="-720" y="840" width="160" height="70" as="geometry">
            <mxRectangle x="230" y="140" width="160" height="26" as="alternateBounds" />
          </mxGeometry>
        </mxCell>
        <mxCell id="1ueZpi8muVTtU1drRdIC-161" value="property" style="text;align=left;verticalAlign=top;spacingLeft=4;spacingRight=4;overflow=hidden;rotatable=0;points=[[0,0.5],[1,0.5]];portConstraint=eastwest;rounded=0;shadow=0;html=0;strokeWidth=1;fillColor=none;strokeColor=none;" vertex="1" parent="1ueZpi8muVTtU1drRdIC-158">
          <mxGeometry y="26" width="160" height="26" as="geometry" />
        </mxCell>
        <mxCell id="1ueZpi8muVTtU1drRdIC-162" value="Abstract Class" style="swimlane;fontStyle=2;align=center;verticalAlign=top;childLayout=stackLayout;horizontal=1;startSize=26;horizontalStack=0;resizeParent=1;resizeLast=0;collapsible=1;marginBottom=0;rounded=0;shadow=0;strokeWidth=1;fillColor=#ffe6cc;strokeColor=#d79b00;" vertex="1" parent="WIyWlLk6GJQsqaUBKTNV-1">
          <mxGeometry x="-510" y="840" width="160" height="70" as="geometry">
            <mxRectangle x="230" y="140" width="160" height="26" as="alternateBounds" />
          </mxGeometry>
        </mxCell>
        <mxCell id="1ueZpi8muVTtU1drRdIC-163" value="property" style="text;align=left;verticalAlign=top;spacingLeft=4;spacingRight=4;overflow=hidden;rotatable=0;points=[[0,0.5],[1,0.5]];portConstraint=eastwest;rounded=0;shadow=0;html=0;strokeWidth=1;fillColor=none;strokeColor=none;" vertex="1" parent="1ueZpi8muVTtU1drRdIC-162">
          <mxGeometry y="26" width="160" height="26" as="geometry" />
        </mxCell>
        <mxCell id="1ueZpi8muVTtU1drRdIC-165" value="User Types" style="swimlane;fontStyle=2;align=center;verticalAlign=top;childLayout=stackLayout;horizontal=1;startSize=26;horizontalStack=0;resizeParent=1;resizeLast=0;collapsible=1;marginBottom=0;rounded=0;shadow=0;strokeWidth=1;fillColor=#dae8fc;strokeColor=#6c8ebf;" vertex="1" parent="WIyWlLk6GJQsqaUBKTNV-1">
          <mxGeometry x="800" y="-2" width="160" height="78" as="geometry">
            <mxRectangle x="230" y="140" width="160" height="26" as="alternateBounds" />
          </mxGeometry>
        </mxCell>
        <mxCell id="1ueZpi8muVTtU1drRdIC-166" value="id" style="text;align=left;verticalAlign=top;spacingLeft=4;spacingRight=4;overflow=hidden;rotatable=0;points=[[0,0.5],[1,0.5]];portConstraint=eastwest;strokeWidth=1;fillColor=none;strokeColor=none;" vertex="1" parent="1ueZpi8muVTtU1drRdIC-165">
          <mxGeometry y="26" width="160" height="26" as="geometry" />
        </mxCell>
        <mxCell id="1ueZpi8muVTtU1drRdIC-167" value="name" style="text;align=left;verticalAlign=top;spacingLeft=4;spacingRight=4;overflow=hidden;rotatable=0;points=[[0,0.5],[1,0.5]];portConstraint=eastwest;strokeWidth=1;fillColor=none;strokeColor=none;" vertex="1" parent="1ueZpi8muVTtU1drRdIC-165">
          <mxGeometry y="52" width="160" height="26" as="geometry" />
        </mxCell>
        <mxCell id="1ueZpi8muVTtU1drRdIC-171" style="edgeStyle=orthogonalEdgeStyle;rounded=0;orthogonalLoop=1;jettySize=auto;html=1;entryX=0;entryY=0.5;entryDx=0;entryDy=0;strokeColor=default;align=center;verticalAlign=middle;fontFamily=Helvetica;fontSize=11;fontColor=default;labelBackgroundColor=default;jumpStyle=arc;jumpSize=13;startArrow=none;startFill=0;endArrow=diamondThin;endFill=1;endSize=24;exitX=1;exitY=0.5;exitDx=0;exitDy=0;" edge="1" parent="WIyWlLk6GJQsqaUBKTNV-1" source="1ueZpi8muVTtU1drRdIC-2" target="1ueZpi8muVTtU1drRdIC-166">
          <mxGeometry relative="1" as="geometry" />
        </mxCell>
        <mxCell id="1ueZpi8muVTtU1drRdIC-178" style="edgeStyle=orthogonalEdgeStyle;rounded=0;orthogonalLoop=1;jettySize=auto;html=1;entryX=1;entryY=0.5;entryDx=0;entryDy=0;endArrow=none;endFill=0;startArrow=open;startFill=0;startSize=14;" edge="1" parent="WIyWlLk6GJQsqaUBKTNV-1" source="1ueZpi8muVTtU1drRdIC-174" target="1ueZpi8muVTtU1drRdIC-9">
          <mxGeometry relative="1" as="geometry">
            <Array as="points">
              <mxPoint x="750" y="154" />
              <mxPoint x="750" y="89" />
            </Array>
          </mxGeometry>
        </mxCell>
        <mxCell id="1ueZpi8muVTtU1drRdIC-174" value="Config" style="swimlane;fontStyle=2;align=center;verticalAlign=top;childLayout=stackLayout;horizontal=1;startSize=26;horizontalStack=0;resizeParent=1;resizeLast=0;collapsible=1;marginBottom=0;rounded=0;shadow=0;strokeWidth=1;fillColor=#dae8fc;strokeColor=#6c8ebf;" vertex="1" parent="WIyWlLk6GJQsqaUBKTNV-1">
          <mxGeometry x="800" y="102" width="160" height="104" as="geometry">
            <mxRectangle x="230" y="140" width="160" height="26" as="alternateBounds" />
          </mxGeometry>
        </mxCell>
        <mxCell id="1ueZpi8muVTtU1drRdIC-175" value="id" style="text;align=left;verticalAlign=top;spacingLeft=4;spacingRight=4;overflow=hidden;rotatable=0;points=[[0,0.5],[1,0.5]];portConstraint=eastwest;strokeWidth=1;fillColor=none;strokeColor=none;" vertex="1" parent="1ueZpi8muVTtU1drRdIC-174">
          <mxGeometry y="26" width="160" height="26" as="geometry" />
        </mxCell>
        <mxCell id="1ueZpi8muVTtU1drRdIC-176" value="name" style="text;align=left;verticalAlign=top;spacingLeft=4;spacingRight=4;overflow=hidden;rotatable=0;points=[[0,0.5],[1,0.5]];portConstraint=eastwest;strokeWidth=1;fillColor=none;strokeColor=none;" vertex="1" parent="1ueZpi8muVTtU1drRdIC-174">
          <mxGeometry y="52" width="160" height="26" as="geometry" />
        </mxCell>
        <mxCell id="1ueZpi8muVTtU1drRdIC-177" value="value" style="text;align=left;verticalAlign=top;spacingLeft=4;spacingRight=4;overflow=hidden;rotatable=0;points=[[0,0.5],[1,0.5]];portConstraint=eastwest;strokeWidth=1;fillColor=none;strokeColor=none;" vertex="1" parent="1ueZpi8muVTtU1drRdIC-174">
          <mxGeometry y="78" width="160" height="26" as="geometry" />
        </mxCell>
      </root>
    </mxGraphModel>
  </diagram>
  <diagram id="AnEjgvfCdY3As1z7NwPU" name="Fonctionnement">
    <mxGraphModel dx="1709" dy="991" grid="1" gridSize="10" guides="1" tooltips="1" connect="1" arrows="1" fold="1" page="1" pageScale="1" pageWidth="850" pageHeight="1100" math="0" shadow="0">
      <root>
        <mxCell id="0" />
        <mxCell id="1" parent="0" />
        <mxCell id="zPJ6MvhCKiAnBzWlL2Ob-9" value="Utilisateurs" style="swimlane;fontStyle=1;childLayout=stackLayout;horizontal=1;startSize=26;fillColor=#d5e8d4;horizontalStack=0;resizeParent=1;resizeParentMax=0;resizeLast=0;collapsible=1;marginBottom=0;whiteSpace=wrap;html=1;glass=0;strokeColor=#82b366;align=center;verticalAlign=middle;swimlaneFillColor=default;fontFamily=Helvetica;fontSize=12;gradientColor=none;" parent="1" vertex="1">
          <mxGeometry x="40" y="240" width="480" height="390" as="geometry" />
        </mxCell>
        <mxCell id="zPJ6MvhCKiAnBzWlL2Ob-19" value="- Se connecter / déconnecter" style="text;strokeColor=none;fillColor=none;align=left;verticalAlign=top;spacingLeft=4;spacingRight=4;overflow=hidden;rotatable=0;points=[[0,0.5],[1,0.5]];portConstraint=eastwest;whiteSpace=wrap;html=1;fontFamily=Helvetica;fontSize=12;fontColor=default;fontStyle=1;" parent="zPJ6MvhCKiAnBzWlL2Ob-9" vertex="1">
          <mxGeometry y="26" width="480" height="26" as="geometry" />
        </mxCell>
        <mxCell id="zPJ6MvhCKiAnBzWlL2Ob-10" value="- Modifier ses informations (nom, prénom, icône, type)" style="text;strokeColor=none;fillColor=none;align=left;verticalAlign=top;spacingLeft=4;spacingRight=4;overflow=hidden;rotatable=0;points=[[0,0.5],[1,0.5]];portConstraint=eastwest;whiteSpace=wrap;html=1;fontFamily=Helvetica;fontSize=12;fontColor=default;fontStyle=1;" parent="zPJ6MvhCKiAnBzWlL2Ob-9" vertex="1">
          <mxGeometry y="52" width="480" height="26" as="geometry" />
        </mxCell>
        <mxCell id="zPJ6MvhCKiAnBzWlL2Ob-15" value="- Modifier ses informations de connexion (email, password)" style="text;strokeColor=none;fillColor=none;align=left;verticalAlign=top;spacingLeft=4;spacingRight=4;overflow=hidden;rotatable=0;points=[[0,0.5],[1,0.5]];portConstraint=eastwest;whiteSpace=wrap;html=1;fontFamily=Helvetica;fontSize=12;fontColor=default;fontStyle=1;" parent="zPJ6MvhCKiAnBzWlL2Ob-9" vertex="1">
          <mxGeometry y="78" width="480" height="26" as="geometry" />
        </mxCell>
        <mxCell id="zPJ6MvhCKiAnBzWlL2Ob-16" value="- Créer / Modifier / Supprimer des Clients" style="text;strokeColor=none;fillColor=none;align=left;verticalAlign=top;spacingLeft=4;spacingRight=4;overflow=hidden;rotatable=0;points=[[0,0.5],[1,0.5]];portConstraint=eastwest;whiteSpace=wrap;html=1;fontFamily=Helvetica;fontSize=12;fontColor=default;fontStyle=1;" parent="zPJ6MvhCKiAnBzWlL2Ob-9" vertex="1">
          <mxGeometry y="104" width="480" height="26" as="geometry" />
        </mxCell>
        <mxCell id="zPJ6MvhCKiAnBzWlL2Ob-17" value="- Créer / Modifier / Supprimer des Projets" style="text;strokeColor=none;fillColor=none;align=left;verticalAlign=top;spacingLeft=4;spacingRight=4;overflow=hidden;rotatable=0;points=[[0,0.5],[1,0.5]];portConstraint=eastwest;whiteSpace=wrap;html=1;fontFamily=Helvetica;fontSize=12;fontColor=default;fontStyle=1;" parent="zPJ6MvhCKiAnBzWlL2Ob-9" vertex="1">
          <mxGeometry y="130" width="480" height="26" as="geometry" />
        </mxCell>
        <mxCell id="zPJ6MvhCKiAnBzWlL2Ob-18" value="- Créer / Modifier / Supprimer des Tâches" style="text;strokeColor=none;fillColor=none;align=left;verticalAlign=top;spacingLeft=4;spacingRight=4;overflow=hidden;rotatable=0;points=[[0,0.5],[1,0.5]];portConstraint=eastwest;whiteSpace=wrap;html=1;fontFamily=Helvetica;fontSize=12;fontColor=default;fontStyle=1;" parent="zPJ6MvhCKiAnBzWlL2Ob-9" vertex="1">
          <mxGeometry y="156" width="480" height="26" as="geometry" />
        </mxCell>
        <mxCell id="nq_-5elE5DR4RATVI4xc-1" value="- Créer / Modifier / Supprimer son temps de travail sur une tâche" style="text;strokeColor=none;fillColor=none;align=left;verticalAlign=top;spacingLeft=4;spacingRight=4;overflow=hidden;rotatable=0;points=[[0,0.5],[1,0.5]];portConstraint=eastwest;whiteSpace=wrap;html=1;fontFamily=Helvetica;fontSize=12;fontColor=default;fontStyle=1;" parent="zPJ6MvhCKiAnBzWlL2Ob-9" vertex="1">
          <mxGeometry y="182" width="480" height="26" as="geometry" />
        </mxCell>
        <mxCell id="nq_-5elE5DR4RATVI4xc-3" value="- Voir qui est en charge du projet" style="text;strokeColor=none;fillColor=none;align=left;verticalAlign=top;spacingLeft=4;spacingRight=4;overflow=hidden;rotatable=0;points=[[0,0.5],[1,0.5]];portConstraint=eastwest;whiteSpace=wrap;html=1;fontFamily=Helvetica;fontSize=12;fontColor=default;fontStyle=1;" parent="zPJ6MvhCKiAnBzWlL2Ob-9" vertex="1">
          <mxGeometry y="208" width="480" height="26" as="geometry" />
        </mxCell>
        <mxCell id="zPJ6MvhCKiAnBzWlL2Ob-20" value="- Voir sa charge de travail" style="text;strokeColor=none;fillColor=none;align=left;verticalAlign=top;spacingLeft=4;spacingRight=4;overflow=hidden;rotatable=0;points=[[0,0.5],[1,0.5]];portConstraint=eastwest;whiteSpace=wrap;html=1;fontFamily=Helvetica;fontSize=12;fontColor=default;fontStyle=1;" parent="zPJ6MvhCKiAnBzWlL2Ob-9" vertex="1">
          <mxGeometry y="234" width="480" height="26" as="geometry" />
        </mxCell>
        <mxCell id="nq_-5elE5DR4RATVI4xc-2" value="- Voir la charge de travail de toutes les personnes qui ont travaillé sur un projet" style="text;strokeColor=none;fillColor=none;align=left;verticalAlign=top;spacingLeft=4;spacingRight=4;overflow=hidden;rotatable=0;points=[[0,0.5],[1,0.5]];portConstraint=eastwest;whiteSpace=wrap;html=1;fontFamily=Helvetica;fontSize=12;fontColor=default;fontStyle=1;" parent="zPJ6MvhCKiAnBzWlL2Ob-9" vertex="1">
          <mxGeometry y="260" width="480" height="26" as="geometry" />
        </mxCell>
        <mxCell id="nq_-5elE5DR4RATVI4xc-4" value="- Discuter avec d&#39;autres utilisateurs (texte + fichiers)" style="text;strokeColor=none;fillColor=none;align=left;verticalAlign=top;spacingLeft=4;spacingRight=4;overflow=hidden;rotatable=0;points=[[0,0.5],[1,0.5]];portConstraint=eastwest;whiteSpace=wrap;html=1;fontFamily=Helvetica;fontSize=12;fontColor=default;fontStyle=1;" parent="zPJ6MvhCKiAnBzWlL2Ob-9" vertex="1">
          <mxGeometry y="286" width="480" height="26" as="geometry" />
        </mxCell>
        <mxCell id="nq_-5elE5DR4RATVI4xc-5" value="- Discuter avec d&#39;autres utilisateurs sur un projet (texte + fichiers)" style="text;strokeColor=none;fillColor=none;align=left;verticalAlign=top;spacingLeft=4;spacingRight=4;overflow=hidden;rotatable=0;points=[[0,0.5],[1,0.5]];portConstraint=eastwest;whiteSpace=wrap;html=1;fontFamily=Helvetica;fontSize=12;fontColor=default;fontStyle=1;" parent="zPJ6MvhCKiAnBzWlL2Ob-9" vertex="1">
          <mxGeometry y="312" width="480" height="26" as="geometry" />
        </mxCell>
        <mxCell id="nq_-5elE5DR4RATVI4xc-6" value="- Discuter avec d&#39;autres utilisateurs sur une tâche (texte + fichiers)" style="text;strokeColor=none;fillColor=none;align=left;verticalAlign=top;spacingLeft=4;spacingRight=4;overflow=hidden;rotatable=0;points=[[0,0.5],[1,0.5]];portConstraint=eastwest;whiteSpace=wrap;html=1;fontFamily=Helvetica;fontSize=12;fontColor=default;fontStyle=1;" parent="zPJ6MvhCKiAnBzWlL2Ob-9" vertex="1">
          <mxGeometry y="338" width="480" height="26" as="geometry" />
        </mxCell>
        <mxCell id="YOATf72EOowJ6kYTU7D4-1" value="- Recevoir un mail au moment où une tâche est terminée dans l&#39;un de ses projets" style="text;strokeColor=none;fillColor=none;align=left;verticalAlign=top;spacingLeft=4;spacingRight=4;overflow=hidden;rotatable=0;points=[[0,0.5],[1,0.5]];portConstraint=eastwest;whiteSpace=wrap;html=1;fontFamily=Helvetica;fontSize=12;fontColor=default;fontStyle=1;" vertex="1" parent="zPJ6MvhCKiAnBzWlL2Ob-9">
          <mxGeometry y="364" width="480" height="26" as="geometry" />
        </mxCell>
        <mxCell id="zPJ6MvhCKiAnBzWlL2Ob-12" value="Utilisateur Admin" style="swimlane;fontStyle=1;childLayout=stackLayout;horizontal=1;startSize=26;fillColor=#f8cecc;horizontalStack=0;resizeParent=1;resizeParentMax=0;resizeLast=0;collapsible=1;marginBottom=0;whiteSpace=wrap;html=1;glass=0;strokeColor=#b85450;align=center;verticalAlign=middle;swimlaneFillColor=default;fontFamily=Helvetica;fontSize=12;" parent="1" vertex="1">
          <mxGeometry x="40" y="80" width="480" height="104" as="geometry" />
        </mxCell>
        <mxCell id="zPJ6MvhCKiAnBzWlL2Ob-13" value="- Modifier la config" style="text;strokeColor=none;fillColor=none;align=left;verticalAlign=top;spacingLeft=4;spacingRight=4;overflow=hidden;rotatable=0;points=[[0,0.5],[1,0.5]];portConstraint=eastwest;whiteSpace=wrap;html=1;fontFamily=Helvetica;fontSize=12;fontColor=default;fontStyle=1;" parent="zPJ6MvhCKiAnBzWlL2Ob-12" vertex="1">
          <mxGeometry y="26" width="480" height="26" as="geometry" />
        </mxCell>
        <mxCell id="zPJ6MvhCKiAnBzWlL2Ob-14" value="- Créer des utilisateurs" style="text;strokeColor=none;fillColor=none;align=left;verticalAlign=top;spacingLeft=4;spacingRight=4;overflow=hidden;rotatable=0;points=[[0,0.5],[1,0.5]];portConstraint=eastwest;whiteSpace=wrap;html=1;fontFamily=Helvetica;fontSize=12;fontColor=default;fontStyle=1;" parent="zPJ6MvhCKiAnBzWlL2Ob-12" vertex="1">
          <mxGeometry y="52" width="480" height="26" as="geometry" />
        </mxCell>
        <mxCell id="KGPY5V2b2nn05DQ1_Ljj-1" value="- Créer des types d&#39;utilisateur" style="text;strokeColor=none;fillColor=none;align=left;verticalAlign=top;spacingLeft=4;spacingRight=4;overflow=hidden;rotatable=0;points=[[0,0.5],[1,0.5]];portConstraint=eastwest;whiteSpace=wrap;html=1;fontFamily=Helvetica;fontSize=12;fontColor=default;fontStyle=1;" parent="zPJ6MvhCKiAnBzWlL2Ob-12" vertex="1">
          <mxGeometry y="78" width="480" height="26" as="geometry" />
        </mxCell>
      </root>
    </mxGraphModel>
  </diagram>
</mxfile>
